<?xml version="1.0" encoding="utf-8"?>
<!-- Generator: Adobe Illustrator 23.0.2, SVG Export Plug-In . SVG Version: 6.00 Build 0)  -->
<svg version="1.1" id="Layer_1" xmlns="http://www.w3.org/2000/svg" xmlns:xlink="http://www.w3.org/1999/xlink" x="0px" y="0px"
	 viewBox="0 0 595.28 393.6" style="enable-background:new 0 0 595.28 393.6;" xml:space="preserve">
<style type="text/css">
	.st0{stroke:#000000;stroke-miterlimit:10;}
	.st1{fill:none;stroke:#000000;stroke-width:14;stroke-miterlimit:10;}
	.st2{fill:none;stroke:#000000;stroke-miterlimit:10;}
	.st3{fill:none;stroke:#000000;stroke-width:36;stroke-miterlimit:10;}
</style>
<g>
	<g>
		<path class="st0" d="M4.49,134.09c27.8,20.14,57.61,36.17,88.6,48.09c19.03,7.29,33.77,15.08,43.76,25.09
			c9.99,9.96,15.05,21.06,15.04,33.9c0.01,13.95-6.73,23.37-20,27.21c7.86,6.14,13.88,12.2,17.98,18.46
			c4.1,6.26,6.16,13.34,6.16,21.34c0,12.47-4.65,21.61-13.86,26.91c-9.21,5.27-22.09,5.63-38.32-0.05
			C68.99,322.8,35.5,305.46,4.49,282.99C4.49,233.36,4.49,183.72,4.49,134.09z M66.25,200.64c0,9.66,0,19.32,0,28.98
			c0.54,0.25,1.08,0.51,1.62,0.76c6.98,3.26,11.99,4.29,14.95,3.35c2.96-0.95,4.45-4.11,4.45-9.45c0.01-9.66-5.78-16.65-17.11-21.82
			C68.85,201.86,67.55,201.25,66.25,200.64z M66.25,254.6c0,10.73,0,21.47,0,32.2c0.66,0.31,1.33,0.63,2,0.94
			c7.36,3.43,12.68,4.5,15.87,3.52c3.19-0.99,4.79-4.35,4.79-10.01c0.01-11.22-6.15-19.09-18.18-24.56
			C69.23,256,67.74,255.3,66.25,254.6z"/>
		<path class="st0" d="M189.13,354.53c-23.03-2.59-45.89-7.25-68.26-13.96c17.55-44.37,35.38-90.01,53.37-136.91
			c32.68,4.96,65.86,5.74,98.7,2.34c18.07,47.76,36.04,94.26,53.77,139.49c-22.58,5.61-45.55,9.17-68.62,10.67
			c-3.01-8.2-6.02-16.43-9.03-24.69c-16.97,0.71-33.98,0.31-50.91-1.2C195.13,338.39,192.13,346.48,189.13,354.53z M210.75,296.06
			c8.55,0.48,17.11,0.68,25.67,0.6c-4.28-12.29-8.56-24.64-12.84-37.07C219.3,271.81,215.02,283.97,210.75,296.06z"/>
		<path class="st0" d="M300.8,202.09c33.73-5.98,66.83-16.44,98.39-31.39c16.39-7.78,28.86-10.79,37.81-7.81
			c8.94,2.94,13.28,10.51,13.29,23.28c-0.01,14.02-5.11,28.63-15.65,43.01c14.97,9.2,23.51,26.62,26.32,53.85
			c-20.41,14.78-41.9,27.35-64.14,37.7c-1.21-18.24-3.95-30.85-8.27-37.94c-4.32-7.1-11.07-8.7-20.39-5.23c0,18.38,0,36.75,0,55.13
			c-21.98,8.16-44.53,14.26-67.36,18.31C300.8,301.36,300.8,251.73,300.8,202.09z M368.16,214.42c0,9.56,0,19.13,0,28.69
			c0.62-0.23,1.24-0.46,1.86-0.69c11.82-4.49,17.61-11.82,17.62-21.09c0-3.9-1.18-6.81-3.56-8.77c-2.38-1.96-6.33-1.78-11.92,0.36
			C370.83,213.42,369.5,213.93,368.16,214.42z"/>
	</g>
</g>
<ellipse class="st1" cx="229.67" cy="125.88" rx="219.09" ry="78.87"/>
<g>
	<path d="M391.1,345.85c-100.58,43.03-214.44,43.03-315.03,0c-7.24-3.09-13.02-11.95-13.03-19.47c0-1.22,0-2.44,0-3.66
		c108.01,50.83,233.07,50.83,341.08,0c0,1.22,0,2.44,0,3.66C404.12,333.9,398.34,342.76,391.1,345.85z"/>
	<path class="st2" d="M391.1,345.85c-100.58,43.03-214.44,43.03-315.03,0c-7.24-3.09-13.02-11.95-13.03-19.47c0-1.22,0-2.44,0-3.66
		c108.01,50.83,233.07,50.83,341.08,0c0,1.22,0,2.44,0,3.66C404.12,333.9,398.34,342.76,391.1,345.85z"/>
</g>
<path class="st3" d="M463.82,153.61c27.78-29.99,65.16-37.09,87.4-22.38c16.24,10.74,22.07,31.59,21.32,46.9
	c-1.74,35.3-39.85,69.2-95.92,79.94"/>
<g>
	<path d="M167.47,133.76c-5.27,0-10.53,0-15.8,0c-31.6-40.88,31.6-81.76,0-122.63c5.27,0,10.53,0,15.8,0
		C199.08,52.01,135.87,92.89,167.47,133.76z"/>
	<path class="st2" d="M167.47,133.76c-5.27,0-10.53,0-15.8,0c-31.6-40.88,31.6-81.76,0-122.63c5.27,0,10.53,0,15.8,0
		C199.08,52.01,135.87,92.89,167.47,133.76z"/>
</g>
<g>
	<path d="M302.88,133.76c-5.27,0-10.53,0-15.8,0c-31.6-40.88,31.6-81.76,0-122.63c5.27,0,10.53,0,15.8,0
		C334.49,52.01,271.28,92.89,302.88,133.76z"/>
	<path class="st2" d="M302.88,133.76c-5.27,0-10.53,0-15.8,0c-31.6-40.88,31.6-81.76,0-122.63c5.27,0,10.53,0,15.8,0
		C334.49,52.01,271.28,92.89,302.88,133.76z"/>
</g>
<g>
	<path d="M237.11,133.76c-5.27,0-10.53,0-15.8,0c-31.6-40.88,31.6-81.76,0-122.63c5.27,0,10.53,0,15.8,0
		C268.71,52.01,205.5,92.89,237.11,133.76z"/>
	<path class="st2" d="M237.11,133.76c-5.27,0-10.53,0-15.8,0c-31.6-40.88,31.6-81.76,0-122.63c5.27,0,10.53,0,15.8,0
		C268.71,52.01,205.5,92.89,237.11,133.76z"/>
</g>
</svg>
